<?xml version="1.0"?>
<svg xmlns="http://www.w3.org/2000/svg" id="Capa_1" enable-background="new 0 0 512 512" height="512px" viewBox="0 0 512 512" width="512px" class=""><g><path d="m387.723 90.757c.674 48.062-49.345 86.354-49.345 86.354s-51.111-39.633-51.785-87.695c-.568-40.493 34.847-74.05 46.017-83.616 1.907-1.634 4.717-1.647 6.621-.009 11.311 9.732 47.922 44.337 48.492 84.966z" fill="#98db7c" data-original="#98DB7C" class=""/><path d="m332.62 5.792c-1.54 1.319-3.543 3.096-5.85 5.284 14.733 13.943 42.156 44.559 42.648 79.681.489 34.918-25.774 64.673-40.178 78.34 5.428 5.137 9.137 8.014 9.137 8.014s50.019-38.292 49.345-86.354c-.569-40.627-37.179-75.232-48.491-84.966-1.901-1.636-4.706-1.631-6.611.001z" fill="#82d361" data-original="#82D361" class=""/><path d="m507.909 101.281c-1.595-.836-39.457-20.301-72.732-7.367-16.328 6.348-28.522 19.202-36.29 38.242-38.336 10.496-79.678 50.582-100.421 72.936-2.878 3.101-2.681 7.947.428 10.816 3.095 2.856 7.913 2.68 10.782-.404 18.003-19.351 52.121-52.708 84.047-65.526-4.457 27.454 9.403 47.121 26.381 54.598 19.706 8.676 40.461 1.389 50.474-17.725 6.32-12.066 4.966-25.51-3.716-36.887-10.611-13.904-29.217-21.394-49.687-20.628 5.894-10.285 13.754-17.388 23.469-21.182 26.766-10.448 59.872 6.474 60.193 6.641 3.732 1.955 8.34.512 10.294-3.22 1.951-3.733.509-8.341-3.222-10.294zm-53.175 57.936c2.9 3.8 7.059 11.524 2.33 20.554-7.178 13.704-20.646 15.321-30.815 10.844-13.153-5.792-22.702-21.908-15.836-45.344 20.779-3.194 37.063 4.435 44.321 13.946z" fill="#994e37" data-original="#994E37" class=""/><g fill="#936cff"><ellipse cx="62.371" cy="446.762" rx="63.094" ry="59.92" transform="matrix(.876 -.482 .482 .876 -207.636 85.4)" data-original="#936CFF" class="" style="fill:#D563F0" data-old_color="#936CFF"/><ellipse cx="218.385" cy="294.912" rx="63.093" ry="59.92" transform="matrix(.876 -.482 .482 .876 -115.111 141.794)" data-original="#936CFF" class="" style="fill:#D563F0" data-old_color="#936CFF"/><ellipse cx="304.648" cy="378.825" rx="63.093" ry="59.92" transform="matrix(.876 -.482 .482 .876 -144.878 193.771)" data-original="#936CFF" class="" style="fill:#D563F0" data-old_color="#936CFF"/><ellipse cx="132.123" cy="210.998" rx="63.094" ry="59.92" transform="matrix(.876 -.482 .482 .876 -85.346 89.82)" data-original="#936CFF" class="" style="fill:#D563F0" data-old_color="#936CFF"/><ellipse cx="97.274" cy="328.895" rx="63.093" ry="59.92" transform="matrix(.876 -.482 .482 .876 -146.496 87.627)" data-original="#936CFF" class="" style="fill:#D563F0" data-old_color="#936CFF"/><ellipse cx="183.536" cy="412.808" rx="63.094" ry="59.92" transform="matrix(.876 -.482 .482 .876 -176.253 139.591)" data-original="#936CFF" class="" style="fill:#D563F0" data-old_color="#936CFF"/><ellipse cx="253.307" cy="177.111" rx="63.093" ry="59.92" transform="matrix(.876 -.482 .482 .876 -54.003 144.041)" data-original="#936CFF" class="" style="fill:#D563F0" data-old_color="#936CFF"/><ellipse cx="339.569" cy="261.024" rx="63.094" ry="59.92" transform="matrix(.876 -.482 .482 .876 -83.768 196.009)" data-original="#936CFF" class="" style="fill:#D563F0" data-old_color="#936CFF"/></g><path d="m105.502 468.644c-24.882 24.205-64.364 25.042-88.184 1.87-8.997-8.752-14.467-19.677-16.458-31.189-3.135 18.35 2.305 37.496 16.458 51.263 23.82 23.172 63.302 22.335 88.184-1.87 15.485-15.063 21.66-35.625 18.38-54.594-2.142 12.534-8.282 24.697-18.38 34.52z" fill="#8165ea" data-original="#8165EA" class="active-path" data-old_color="#8165ea" style="fill:#BA00E6"/><path d="m261.516 316.794c-24.882 24.204-64.364 25.042-88.184 1.87-8.997-8.752-14.467-19.677-16.458-31.189-3.134 18.35 2.305 37.496 16.458 51.263 23.821 23.172 63.302 22.335 88.184-1.87 15.485-15.063 21.661-35.625 18.38-54.594-2.141 12.534-8.281 24.697-18.38 34.52z" fill="#8165ea" data-original="#8165EA" class="active-path" data-old_color="#8165ea" style="fill:#BA00E6"/><path d="m347.779 400.707c-24.882 24.204-64.364 25.042-88.184 1.87-8.997-8.751-14.467-19.677-16.458-31.189-3.135 18.35 2.305 37.495 16.458 51.263 23.821 23.172 63.302 22.335 88.184-1.87 15.485-15.063 21.66-35.625 18.38-54.594-2.141 12.534-8.282 24.697-18.38 34.52z" fill="#8165ea" data-original="#8165EA" class="active-path" data-old_color="#8165ea" style="fill:#BA00E6"/><path d="m175.254 232.881c-24.882 24.204-64.364 25.042-88.184 1.87-8.997-8.752-14.467-19.677-16.458-31.189-3.135 18.35 2.305 37.496 16.458 51.264 23.821 23.172 63.302 22.335 88.184-1.87 15.485-15.063 21.66-35.625 18.38-54.594-2.141 12.533-8.281 24.695-18.38 34.519z" fill="#8165ea" data-original="#8165EA" class="active-path" data-old_color="#8165ea" style="fill:#BA00E6"/><path d="m140.405 350.777c-24.882 24.205-64.364 25.042-88.184 1.87-8.997-8.752-14.467-19.677-16.458-31.189-3.134 18.35 2.305 37.495 16.458 51.263 23.821 23.172 63.302 22.335 88.184-1.87 15.485-15.063 21.661-35.625 18.38-54.594-2.141 12.535-8.282 24.697-18.38 34.52z" fill="#8165ea" data-original="#8165EA" class="active-path" data-old_color="#8165ea" style="fill:#BA00E6"/><path d="m226.667 434.691c-24.882 24.204-64.364 25.042-88.184 1.87-8.997-8.752-14.467-19.677-16.458-31.189-3.134 18.35 2.305 37.496 16.458 51.263 23.821 23.172 63.302 22.335 88.184-1.87 15.485-15.063 21.66-35.625 18.38-54.594-2.141 12.534-8.281 24.696-18.38 34.52z" fill="#8165ea" data-original="#8165EA" class="active-path" data-old_color="#8165ea" style="fill:#BA00E6"/><path d="m296.438 198.994c-24.882 24.205-64.364 25.042-88.184 1.87-8.997-8.751-14.467-19.677-16.458-31.189-3.135 18.35 2.305 37.496 16.458 51.263 23.821 23.172 63.302 22.335 88.184-1.87 15.485-15.063 21.66-35.625 18.38-54.594-2.141 12.534-8.282 24.696-18.38 34.52z" fill="#8165ea" data-original="#8165EA" class="active-path" data-old_color="#8165ea" style="fill:#BA00E6"/><path d="m382.7 282.907c-24.882 24.205-64.364 25.042-88.184 1.87-8.997-8.752-14.467-19.677-16.458-31.189-3.134 18.35 2.305 37.495 16.458 51.263 23.821 23.172 63.302 22.335 88.184-1.87 15.485-15.063 21.66-35.625 18.38-54.594-2.141 12.534-8.282 24.697-18.38 34.52z" fill="#8165ea" data-original="#8165EA" class="active-path" data-old_color="#8165ea" style="fill:#BA00E6"/></g> </svg>
