<?xml version="1.0"?>
<svg xmlns="http://www.w3.org/2000/svg" id="Layer_1" height="512px" viewBox="0 0 512 512" width="512px" data-name="Layer 1" class=""><g><path d="m195.537 127.967s-.055-.114-.163-.308a130.159 130.159 0 0 1 -7.044-16.2c-.266-.724-.543-1.485-.822-2.294-.655-1.854-1.321-3.878-2.039-6.2-.267-.859-.524-1.746-.782-2.643-.007-.023-.016-.044-.023-.066s-.006-.031-.011-.047c-6.295-21.746-11-54.48 2.308-86.934a6 6 0 1 0 -11.1-4.554c-14.626 35.653-9.559 71.245-2.732 94.825 0 .014.011.027.015.041s.007.031.011.047c.282.983.565 1.956.856 2.889.762 2.46 1.476 4.63 2.17 6.6.294.848.6 1.687.886 2.47a140.867 140.867 0 0 0 7.785 17.834 5.915 5.915 0 0 0 5.265 3.186 6.021 6.021 0 0 0 5.422-8.644z" fill="#63591a" data-original="#63591A" class=""/><path d="m182.35 113.81a12.141 12.141 0 0 1 -8.58 14.84l-10.31 2.98c-49.49 14.34-96.19-7.09-117.7-57.4-3.45-8.07-16.32-31.09-16.32-31.09s27.3-1.91 36.3-3.44c49.98-8.49 98.66 15.96 113.15 62.18.01.04.02.07.03.1.27.94.54 1.87.82 2.77z" fill="#6b9337" data-original="#6B9337" class=""/><path d="m182.35 113.81-2.61-9.06c-.28-.9-.55-1.83-.82-2.77-.01-.03-.02-.06-.03-.1a87.106 87.106 0 0 0 -8.827-19.444l-8.478 4.7c-41.086 22.82-86.54 16.1-118.642-18.832 1.175 2.338 2.165 4.4 2.817 5.924 21.51 50.31 68.21 71.74 117.7 57.4l10.31-2.98a12.141 12.141 0 0 0 8.58-14.838z" fill="#59752c" data-original="#59752C" class=""/><path d="m268.75 15.59s-2.33 20-2.41 26.69c-.44 41.77-27.07 70.62-66.1 75.12l-8.12.94a9.392 9.392 0 0 1 -9.42-4.81c-.28-.76-.57-1.56-.85-2.37-.05-.24-.09-.49-.12-.74l-.88-7.81c-4.24-37.5 23.13-69.86 61.35-78.74 6.78-1.58 26.55-8.28 26.55-8.28z" fill="#5d8430" data-original="#5D8430" class=""/><path d="m193.531 95.984-8.148-.645a9.623 9.623 0 0 1 -4.929-1.836 67.6 67.6 0 0 0 .4 9.107l.88 7.81c.03.25.07.5.12.74.28.81.57 1.61.85 2.37a9.392 9.392 0 0 0 9.42 4.81l8.12-.94c33.974-3.917 58.543-26.289 64.631-59.566-13.789 26.466-40.197 40.628-71.344 38.15z" fill="#59752c" data-original="#59752C" class=""/><path d="m190.1 130.52c15.58-9.8 34.01-8.68 41.3 2.91 77.87-25.82 175.12 15.86 219.85 86.94 46.77 74.33 42.52 184.75-22.08 241.83 6.64 10.56 1.32 27.14-9.14 33.73s-27.73 4.2-34.37-6.35c-79.41 33.54-180.8-10.41-227.57-84.74-44.73-71.08-39.98-176.56 16.99-235.58a19.567 19.567 0 0 1 -2.94-10.55c0-9.98 6.64-21.07 17.95-28.19z" fill="#eded3b" data-original="#EDED3B" class="" data-old_color="#eded3b" style="fill:#FFFF00"/><path d="m477.035 379.518c-57.314 61.893-165.107 66.2-238.545 20.953-60.345-37.177-99.873-111.891-95.662-181.251-24.104 58.18-18.628 131.769 15.262 185.62 46.77 74.33 148.16 118.28 227.57 84.74 6.64 10.55 23.9 12.94 34.37 6.35s15.78-23.17 9.14-33.73c24.398-21.558 40.181-50.725 47.865-82.682z" fill="#d3cf39" data-original="#D3CF39" class="active-path" data-old_color="#d3cf39" style="fill:#DECD13"/><g opacity=".6"><path d="m239.1 433.271a5.978 5.978 0 0 1 -3.1-.867c-3.49-2.112-6.932-4.376-10.23-6.731a6 6 0 0 1 6.972-9.766c3.052 2.178 6.238 4.275 9.47 6.229a6 6 0 0 1 -3.112 11.135z" fill="#e9e9e9" data-original="#E9E9E9" class="" style="fill:#E9E9E9"/></g><g opacity=".6"><path d="m208.631 409.07a5.985 5.985 0 0 1 -4.313-1.828c-1.863-1.926-3.653-3.866-5.319-5.766-42.97-48.987-43.7-112.26-42.025-137.189a6 6 0 0 1 11.972.806c-1.578 23.435-.93 82.865 39.075 128.47 1.538 1.755 3.194 3.549 4.921 5.335a6 6 0 0 1 -4.311 10.172z" fill="#e9e9e9" data-original="#E9E9E9" class="" style="fill:#E9E9E9"/></g></g> </svg>
