<?xml version="1.0"?>
<svg xmlns="http://www.w3.org/2000/svg" xmlns:xlink="http://www.w3.org/1999/xlink" version="1.1" id="Layer_1" x="0px" y="0px" viewBox="0 0 512.003 512.003" style="enable-background:new 0 0 512.003 512.003;" xml:space="preserve" width="512px" height="512px" class="hovered-paths"><g><circle style="fill:#FF9200" cx="256.002" cy="285.953" r="226.05" data-original="#FF9911" class="hovered-path active-path" data-old_color="#FF9911"/><g>
	<circle style="fill:#F18700;" cx="380.332" cy="232.716" r="29.006" data-original="#F18700"/>
	<circle style="fill:#F18700;" cx="348.139" cy="296.778" r="20.908" data-original="#F18700"/>
	<circle style="fill:#F18700;" cx="414.782" cy="285.598" r="16.184" data-original="#F18700"/>
</g><path style="fill:#D07400;" d="M244.177,100.016c-9.436,5.294-9.651,14.032-0.479,19.515c9.172,5.484,24.257,5.635,33.692,0.341  c9.436-5.294,9.651-14.032,0.479-19.515C268.697,94.873,253.612,94.721,244.177,100.016" data-original="#D07400" class=""/><path style="fill:#8FCC05;" d="M405.211,1.083c-6.29-3.631-72.71,1.65-102.729,19.094c-30.018,17.444-20.314,34.204-4.599,43.277  c15.717,9.074,44.681,14.641,74.7-2.804C402.602,43.205,410.59,4.189,405.211,1.083" data-original="#8FCC05"/><g>
	<polyline style="fill:#9CDD03" points="365.795,10.178 362.504,25.764 366.477,23.455 365.795,10.178  " data-original="#9CDD03" class=""/>
	<polyline style="fill:#9CDD03" points="341.403,18.489 343.176,36.996 347.149,34.688 341.403,18.489  " data-original="#9CDD03" class=""/>
	<polyline style="fill:#9CDD03" points="315.334,25.829 323.848,48.229 327.819,45.921 315.334,25.829  " data-original="#9CDD03" class=""/>
	<polyline style="fill:#9CDD03" points="389.401,23.808 366.477,23.455 362.504,25.764 389.401,23.808  " data-original="#9CDD03" class=""/>
	<polyline style="fill:#9CDD03" points="375.133,37.964 347.149,34.688 343.176,36.996 375.133,37.964  " data-original="#9CDD03" class=""/>
	<polyline style="fill:#9CDD03" points="362.546,53.087 327.819,45.921 323.848,48.229 362.546,53.087  " data-original="#9CDD03" class=""/>
	<path style="fill:#9CDD03" d="M266.01,72.267c-0.013,0.006-0.026,0.011-0.038,0.019c-0.002,0.001-0.008,0.004-0.008,0.004   c0.002-0.001,0.005-0.002,0.007-0.003c-0.711,0.41-1.152,1.284-1.156,2.53c-0.007,2.5,1.75,5.543,3.926,6.799   c1.163,0.672,2.207,0.691,2.931,0.185c-0.043,0.03-0.084,0.063-0.129,0.089c0,0,115.061-67.692,114.375-68.195   C384.836,13.07,268.51,71.023,266.01,72.267z" data-original="#9CDD03" class=""/>
</g><g>
	<path style="fill:#8FCC05;" d="M274.72,44.866c0.088-2.139-1.279-4.296-4.106-5.928c-5.462-3.153-14.287-3.152-19.713,0.001   c-2.704,1.572-4.052,3.629-4.05,5.688c0-0.006-0.001-0.014-0.001-0.02l-0.009,68.25c-0.006,2.079,1.367,4.162,4.115,5.749   c5.462,3.153,14.287,3.152,19.712,0c2.696-1.566,4.046-3.617,4.051-5.671l0.009-68.25C274.727,44.747,274.722,44.807,274.72,44.866   z" data-original="#8FCC05"/>
	<path style="fill:#8FCC05;" d="M274.727,44.687l-0.009,68.25c-0.006,2.053-1.355,4.103-4.051,5.671   c-5.425,3.152-14.25,3.153-19.712,0c-2.748-1.586-4.12-3.67-4.115-5.749l0.009-68.25c-0.006,2.079,1.367,4.162,4.115,5.749   c5.462,3.153,14.287,3.152,19.712,0C273.372,48.791,274.722,46.741,274.727,44.687z" data-original="#8FCC05"/>
</g><path style="fill:#9CDD03" d="M270.613,38.939c5.462,3.153,5.489,8.265,0.063,11.418c-5.425,3.152-14.25,3.153-19.712,0  c-5.462-3.153-5.489-8.265-0.065-11.417C256.325,35.786,265.152,35.785,270.613,38.939z" data-original="#9CDD03" class=""/></g> </svg>
