<?xml version="1.0"?>
<svg xmlns="http://www.w3.org/2000/svg" id="Capa_1" enable-background="new 0 0 512 512" height="512px" viewBox="0 0 512 512" width="512px"><g><path d="m335.863 80.948c-28.372 28.372-80.41 22.336-80.41 22.336s-6.036-52.037 22.336-80.41c23.326-23.326 62.648-23.395 75.898-22.681 2.62.141 4.716 2.238 4.858 4.857.713 13.249.644 52.571-22.682 75.898z" fill="#98db7c" data-original="#98DB7C"/><path d="m353.656.192c-2.817-.151-6.805-.265-11.561-.131-.044 17.146-3.115 48.372-22.872 68.13-18.365 18.365-46.642 22.312-64.307 22.813-.019 7.477.536 12.28.536 12.28s52.037 6.037 80.41-22.336c23.326-23.326 23.395-62.646 22.682-75.897-.141-2.632-2.255-4.718-4.888-4.859z" fill="#82d361" data-original="#82D361"/><path d="m256.014 138.045c-.349 0-.702-.024-1.056-.072-4.233-.577-7.198-4.474-6.626-8.706.049-.383 2.291-18.497-3.605-40.964-7.827-29.822-25.634-52.985-52.929-68.846-3.697-2.148-4.952-6.887-2.803-10.584 2.147-3.697 6.884-4.953 10.584-2.804 38.857 22.58 54.235 55.396 60.293 78.95 6.539 25.424 3.918 45.488 3.804 46.329-.531 3.882-3.851 6.697-7.662 6.697z" fill="#62c136" data-original="#62C136"/><path d="m295.598 121.532c-13.775 0-27.069 2.955-39.598 8.43-12.529-5.475-25.823-8.43-39.598-8.43-75.054 0-135.898 87.409-135.898 195.234s60.844 195.234 135.898 195.234c13.775 0 27.069-2.955 39.598-8.429 12.53 5.475 25.823 8.429 39.598 8.429 75.054 0 135.898-87.409 135.898-195.234s-60.844-195.234-135.898-195.234z" fill="#936cff" data-original="#936CFF" class=""/><g fill="#8165ea"><path d="m216.372 121.532c-3.123 0-6.219.165-9.29.463 70.704 6.862 126.578 91.434 126.578 194.77s-55.875 187.908-126.578 194.771c3.071.298 6.167.463 9.29.463 75.038 0 135.868-87.409 135.868-195.234s-60.829-195.233-135.868-195.233z" data-original="#8165EA" class="active-path" style="fill:#8165EA"/><path d="m295.598 121.532c-3.132 0-6.237.16-9.316.461 70.732 6.843 126.633 91.423 126.633 194.773s-55.901 187.93-126.633 194.773c3.079.3 6.184.461 9.316.461 75.054 0 135.898-87.409 135.898-195.234s-60.844-195.234-135.898-195.234z" data-original="#8165EA" class="active-path" style="fill:#8165EA"/></g></g> </svg>
