<?xml version="1.0"?>
<svg xmlns="http://www.w3.org/2000/svg" xmlns:xlink="http://www.w3.org/1999/xlink" version="1.1" id="Capa_1" x="0px" y="0px" viewBox="0 0 512.001 512.001" style="enable-background:new 0 0 512.001 512.001;" xml:space="preserve" width="512px" height="512px" class=""><g><path style="fill:#B4E66E;" d="M277.863,63.893c-1.971-17.491-0.136-34.872,1.381-44.858c0.532-3.503-3.351-5.971-6.348-4.082  c-21.37,13.467-31.453,31.536-36.262,47.908l20.657,21.935L277.863,63.893z" data-original="#B4E66E"/><path style="fill:#A0D755;" d="M358.859,48.64c-43.527-8.55-72.843,3.368-92.839,20.896c-1.538,1.348-3.945,0.806-4.616-1.125  c-3.06-8.803-7.685-31.309,13.511-54.022c-0.678,0.034-1.37,0.156-2.019,0.565c-20.512,12.926-30.568,30.078-35.599,45.913  c-19.31-12.416-45.493-19.271-81.348-12.215c-3.524,0.693-3.625,5.699-0.154,6.62c17.154,4.551,44.63,15.834,59.201,42.944h84.876  c14.564-27.095,42.017-38.38,59.172-42.936C362.518,54.357,362.387,49.333,358.859,48.64z" data-original="#A0D755"/><path style="fill:#87BE4B;" d="M153.563,52.798c48.404-2.571,76.102,22.59,92.417,47.035l-30.984-1.616  c-14.556-27.082-41.99-38.368-59.148-42.929C154.492,54.926,153.842,53.903,153.563,52.798z" data-original="#87BE4B"/><path style="fill:#B4E66E;" d="M361.304,52.798c-48.404-2.571-76.102,22.59-92.417,47.035l30.984-1.616  c14.556-27.082,41.99-38.368,59.148-42.929C360.374,54.926,361.025,53.903,361.304,52.798z" data-original="#B4E66E"/><path style="fill:#FF1000" d="M334.357,94.122c-14.18-1.471-28.087-1.396-41.588,0.066c-24.475,2.651-49.062,2.651-73.537,0  c-13.501-1.462-27.408-1.537-41.588-0.066c-95.89,9.947-171.683,91.406-177.31,189.63C-6.368,400.766,87.979,497.7,256,497.7  s262.368-96.934,255.666-213.948C506.039,185.528,430.246,104.069,334.357,94.122z" data-original="#FF6E64" class="" data-old_color="#FF6E64"/><path style="fill:#E5221A" d="M396.387,439.893c-168.021,0-262.368-96.934-255.665-213.948  c2.955-51.592,25.391-98.429,59.806-132.837c-7.536-0.09-15.165,0.214-22.885,1.014c-95.89,9.947-171.682,91.406-177.308,189.63  C-6.368,400.765,87.979,497.7,256,497.7c82.459,0,147.12-23.383,190.854-60.991C430.85,438.762,414.052,439.893,396.387,439.893z" data-original="#DC5F5A" class="active-path" data-old_color="#DC5F5A"/></g> </svg>
