<?xml version="1.0" encoding="iso-8859-1"?>
<!-- Generator: Adobe Illustrator 19.0.0, SVG Export Plug-In . SVG Version: 6.00 Build 0)  -->
<svg version="1.1" id="Capa_1" xmlns="http://www.w3.org/2000/svg" xmlns:xlink="http://www.w3.org/1999/xlink" x="0px" y="0px"
	 viewBox="0 0 468.299 468.299" style="enable-background:new 0 0 468.299 468.299;" xml:space="preserve">
<path style="fill:#44C4A1;" d="M330.011,213.833c63.227,13.147,125.141-27.451,138.288-90.678
	C405.072,110.008,343.158,150.606,330.011,213.833z"/>
<path style="fill:#3EA69B;" d="M452.137,133.168l-40.679,27.508c1.945-4.291,3.794-10.499,1.559-16.047l-3.627,17.445
	l-25.668,17.357c2.185-4.117,5.215-11.592,2.575-18.145l-3.969,19.088l-38.482,26.021c0,0,27.48-13.231,56.632-31.991
	c5.296,3.667,12.913,2.898,12.913,2.898l-10.73-4.306c8.077-5.261,16.222-10.932,23.912-16.848
	c5.13,5.436,14.728,4.419,14.728,4.419l-13.46-5.402C436.949,148.077,445.365,140.657,452.137,133.168z"/>
<path style="fill:#44C4A1;" d="M138.294,223.031C75.067,236.178,13.153,195.581,0.006,132.353
	C63.234,119.206,125.147,159.804,138.294,223.031z"/>
<path style="fill:#3EA69B;" d="M16.168,142.366l40.679,27.508c-1.945-4.291-3.794-10.499-1.559-16.047l3.627,17.445l25.668,17.357
	c-2.185-4.117-5.215-11.592-2.575-18.145l3.969,19.088l38.482,26.021c0,0-27.48-13.231-56.632-31.991
	c-5.296,3.667-12.913,2.898-12.913,2.898l10.73-4.306c-8.077-5.261-16.222-10.932-23.912-16.848
	c-5.13,5.436-14.728,4.419-14.728,4.419l13.46-5.402C31.356,157.275,22.941,149.855,16.168,142.366z"/>
<path style="fill:#2D93BA;" d="M358.771,139.596c0,65.829-57.562,119.246-128.595,119.246S101.52,205.425,101.52,139.596
	c0-3.249,0.12-6.563,0.482-9.748c5.292,61.28,60.688,109.498,128.174,109.498c67.485,0,122.821-48.218,128.114-109.498
	C358.65,133.033,358.771,136.347,358.771,139.596z"/>
<g>
	<path style="fill:#27A2DB;" d="M358.289,129.848c-5.292,61.28-60.628,109.498-128.114,109.498
		c-67.486,0-122.882-48.218-128.174-109.498c5.292-61.28,60.688-109.433,128.174-109.433
		C297.661,20.415,352.997,68.568,358.289,129.848z"/>
	<ellipse style="fill:#27A2DB;" cx="128.631" cy="328.687" rx="128.631" ry="119.196"/>
</g>
<g>
	<path style="fill:#E1E6E9;" d="M33.384,365.13c-2.551,0-4.975-1.52-6.01-4.03c-4.277-10.401-6.454-21.304-6.467-32.41
		c-0.006-3.592,2.9-6.505,6.492-6.508h0.006c3.586,0,6.492,2.903,6.498,6.489c0.013,9.408,1.859,18.654,5.489,27.485
		c1.364,3.319-0.222,7.117-3.541,8.482C35.047,364.972,34.209,365.13,33.384,365.13z"/>
	<path style="fill:#E1E6E9;" d="M94.13,415.734c-0.939,0-1.897-0.206-2.805-0.641c-14.812-7.114-27.466-16.684-37.607-28.446
		c-2.348-2.716-2.043-6.819,0.673-9.164c2.716-2.345,6.816-2.047,9.164,0.679c8.973,10.398,20.206,18.883,33.393,25.216
		c3.237,1.552,4.601,5.435,3.046,8.672C98.877,414.376,96.554,415.734,94.13,415.734z"/>
	<path style="fill:#E1E6E9;" d="M159.849,429.132c-0.006,0-0.013,0-0.025,0c-8.06-0.029-16.214-0.742-24.242-2.123
		c-3.541-0.606-5.915-3.966-5.305-7.501c0.603-3.535,3.973-5.927,7.501-5.305c7.323,1.253,14.755,1.904,22.097,1.932
		c3.586,0.013,6.486,2.932,6.473,6.524C166.334,426.239,163.428,429.132,159.849,429.132z"/>
</g>
<path style="fill:#1C75A1;" d="M146.199,265.146c-0.918,0-1.904-0.275-2.827-0.825l-23.219-13.813L96.935,264.32
	c-1.858,1.107-3.961,1.107-5.167,0c-1.171-1.072-1.165-2.912-0.049-4.527l12.876-18.546l-13.151-7.826
	c-0.759-0.451-0.755-1.237-0.021-1.933c0.722-0.68,1.987-1.132,3.154-1.132h17.584l5.832-8.4c0.644-0.921,3.677-0.921,4.321,0
	l5.832,8.4h17.584c1.167,0,2.432,0.452,3.154,1.132c0.734,0.696,0.738,1.482-0.021,1.933l-13.151,7.826l12.876,18.546
	c1.116,1.614,1.122,3.455-0.049,4.527C147.94,264.87,147.117,265.146,146.199,265.146z M120.153,244.296
	c0.702,0,1.401,0.162,2.008,0.49l12.938,6.988l-6.298-10.696c-0.548-0.937-0.217-1.932,0.795-2.479l8.944-4.833h-11.968
	c-1.242,0-2.373-0.502-2.803-1.227l-3.617-6.142l-3.617,6.142c-0.429,0.725-1.561,1.227-2.803,1.227h-11.968l8.944,4.833
	c1.012,0.546,1.344,1.542,0.795,2.479l-6.298,10.696l12.938-6.988C118.752,244.458,119.451,244.296,120.153,244.296z"/>
<path style="fill:#2D93BA;" d="M468.299,328.687c0,63.749-54.012,115.802-121.979,119.051h-1.203
	c-1.805,0.065-3.609,0.13-5.413,0.13c-71.034,0-128.656-53.352-128.656-119.181s57.622-119.246,128.656-119.246
	c1.805,0,3.609,0.065,5.413,0.13h1.203C414.287,212.821,468.299,264.938,468.299,328.687z"/>
<path style="fill:#27A2DB;" d="M468.299,328.687c0,63.749-54.012,115.802-121.979,119.051h-1.203
	c-67.967-3.249-122.039-55.302-122.039-119.051s54.073-115.867,122.039-119.116h1.203
	C414.287,212.821,468.299,264.938,468.299,328.687z"/>
<g>
	<path style="fill:#E1E6E9;" d="M254.162,365.13c-2.551,0-4.975-1.52-6.01-4.03c-4.277-10.401-6.454-21.304-6.467-32.41
		c-0.006-3.592,2.9-6.505,6.492-6.508h0.006c3.586,0,6.492,2.903,6.498,6.489c0.013,9.408,1.859,18.654,5.489,27.485
		c1.364,3.319-0.222,7.117-3.541,8.482C255.825,364.972,254.987,365.13,254.162,365.13z"/>
	<path style="fill:#E1E6E9;" d="M315.758,420.884c-0.939,0-1.897-0.206-2.805-0.641c-14.812-7.114-27.466-16.684-37.607-28.446
		c-2.348-2.716-2.043-6.819,0.673-9.164c2.716-2.345,6.816-2.047,9.164,0.679c8.973,10.398,20.206,18.883,33.393,25.216
		c3.237,1.552,4.601,5.435,3.046,8.672C320.505,419.526,318.183,420.884,315.758,420.884z"/>
	<path style="fill:#E1E6E9;" d="M160.238,181.528c-0.993-0.29-1.943-0.805-2.769-1.545c-13.468-12.106-23.894-26.143-30.984-41.721
		c-1.644-3.599-0.053-7.845,3.546-9.485c3.598-1.64,7.843-0.057,9.484,3.552c6.276,13.774,15.534,26.223,27.525,37.001
		c2.944,2.642,3.186,7.173,0.54,10.115C165.679,181.56,162.802,182.278,160.238,181.528z"/>
</g>
<g>
	<path style="fill:#1C75A1;" d="M374.217,265.146c-0.918,0-1.904-0.275-2.827-0.825l-23.219-13.813l-23.219,13.813
		c-1.858,1.107-3.961,1.107-5.167,0c-1.171-1.072-1.165-2.912-0.049-4.527l12.876-18.546l-13.151-7.826
		c-0.759-0.451-0.755-1.237-0.021-1.933c0.722-0.68,1.987-1.132,3.154-1.132h17.584l5.832-8.4c0.644-0.921,3.677-0.921,4.321,0
		l5.832,8.4h17.584c1.167,0,2.432,0.452,3.154,1.132c0.734,0.696,0.738,1.482-0.021,1.933l-13.151,7.826l12.876,18.546
		c1.116,1.614,1.122,3.455-0.049,4.527C375.959,264.87,375.136,265.146,374.217,265.146z M348.172,244.296
		c0.702,0,1.401,0.162,2.008,0.49l12.938,6.988l-6.298-10.696c-0.548-0.937-0.217-1.932,0.796-2.479l8.944-4.833h-11.968
		c-1.242,0-2.373-0.502-2.803-1.227l-3.617-6.142l-3.617,6.142c-0.429,0.725-1.561,1.227-2.803,1.227h-11.968l8.944,4.833
		c1.012,0.546,1.344,1.542,0.795,2.479l-6.298,10.696l12.938-6.988C346.771,244.458,347.47,244.296,348.172,244.296z"/>
	<circle style="fill:#1C75A1;" cx="348.166" cy="237.839" r="4.221"/>
	<path style="fill:#1C75A1;" d="M255.868,85.23c-0.918,0-1.904-0.275-2.827-0.825l-23.219-13.813l-23.219,13.813
		c-1.858,1.107-3.961,1.107-5.167,0c-1.171-1.072-1.165-2.912-0.049-4.527l12.876-18.546l-13.151-7.826
		c-0.759-0.451-0.755-1.237-0.021-1.933c0.722-0.68,1.987-1.132,3.154-1.132h17.584l5.833-8.4c0.644-0.921,3.677-0.921,4.321,0
		l5.833,8.4H255.4c1.167,0,2.432,0.452,3.154,1.132c0.734,0.696,0.738,1.482-0.021,1.933l-13.151,7.826l12.876,18.546
		c1.116,1.614,1.122,3.455-0.049,4.527C257.61,84.955,256.787,85.23,255.868,85.23z M229.823,64.381c0.702,0,1.401,0.162,2.008,0.49
		l12.938,6.988l-6.298-10.696c-0.548-0.937-0.217-1.932,0.796-2.479l8.944-4.833h-11.968c-1.242,0-2.373-0.502-2.803-1.227
		l-3.617-6.142l-3.617,6.142c-0.429,0.725-1.561,1.227-2.803,1.227h-11.968l8.944,4.833c1.012,0.546,1.344,1.542,0.795,2.479
		l-6.298,10.696l12.938-6.988C228.422,64.543,229.121,64.381,229.823,64.381z"/>
	<circle style="fill:#1C75A1;" cx="229.782" cy="57.921" r="4.221"/>
	<circle style="fill:#1C75A1;" cx="120.151" cy="237.839" r="4.221"/>
</g>
<g>
</g>
<g>
</g>
<g>
</g>
<g>
</g>
<g>
</g>
<g>
</g>
<g>
</g>
<g>
</g>
<g>
</g>
<g>
</g>
<g>
</g>
<g>
</g>
<g>
</g>
<g>
</g>
<g>
</g>
</svg>
