<?xml version="1.0"?>
<svg xmlns="http://www.w3.org/2000/svg" xmlns:xlink="http://www.w3.org/1999/xlink" version="1.1" id="Capa_1" x="0px" y="0px" viewBox="0 0 512 512" style="enable-background:new 0 0 512 512;" xml:space="preserve" width="512px" height="512px" class="hovered-paths"><g><path style="fill:#CDEDFF;" d="M256.973,459.989V315.744h-53.696v144.245c0,6.429-3.299,12.408-8.738,15.837l-40.424,25.482  c-4.913,3.097-2.719,10.692,3.089,10.692h145.843c5.807,0,8.001-7.595,3.089-10.692l-40.424-25.482  C260.272,472.398,256.973,466.418,256.973,459.989z" data-original="#CDEDFF" class=""/><path style="opacity:0.1;enable-background:new    ;" d="M203.277,315.744V459.99c0,6.429-3.299,12.408-8.738,15.836l-40.424,25.482  c-4.913,3.097-2.719,10.692,3.089,10.692h26.421c-9.712-6.454,3.437-12.29,26.752-29.611c12.079-8.974,10.941-13.476,10.616-87.769  c3.026,0.15,6.069,0.232,9.132,0.232c9.125,0,18.099-0.67,26.848-1.978v-77.13H203.277z" data-original="#000000" class=""/><path style="fill:#CDEDFF;" d="M96.381,252.178c0-60.392,51.669-110.82,12.555-164.879c-4.339-5.997-0.062-14.388,7.341-14.388  h227.696c7.403,0,11.68,8.39,7.341,14.388c-39.114,54.059,12.555,104.487,12.555,164.879c0,73.865-59.879,122.673-133.744,122.673  C156.26,374.852,96.381,326.043,96.381,252.178z" data-original="#CDEDFF" class=""/><path style="fill:#E36FA5;" d="M243.197,195.587l-40.191-9.797l28.415-116.575c6.464-26.521,28.066-46.396,55.033-50.633  l117.807-18.51c3.186-0.501,6.175,1.676,6.676,4.862l4.609,29.33c0.501,3.186-1.676,6.175-4.862,6.675L292.876,59.45  c-10.419,1.637-18.766,9.315-21.264,19.562L243.197,195.587z" data-original="#E36FA5"/><path style="opacity:0.1;enable-background:new    ;" d="M289.52,18.101l-3.064,0.481c-26.968,4.237-48.57,24.112-55.033,50.633  l-2.211,9.07l40.213,9.706l2.189-8.98c2.498-10.247,10.844-17.925,21.264-19.562l9.851-1.548L289.52,18.101z" data-original="#000000" class=""/><path style="opacity:0.1;enable-background:new    ;" d="M253.94,33.21c-3.861,3.191-7.359,6.808-10.425,10.79l30.667,28.49  c2.494-4.482,6.248-8.111,10.791-10.449L253.94,33.21z" data-original="#000000" class=""/><path style="fill:#EB7D16" d="M351.604,193.664H108.646c-6.326,18.713-12.265,38.041-12.265,58.514  c0,73.865,59.879,122.674,133.744,122.674S363.87,326.043,363.87,252.178C363.869,231.705,357.93,212.377,351.604,193.664z" data-original="#2CA7C1" class="hovered-path active-path" data-old_color="#2CA7C1"/><path style="fill:#FFFFFF;" d="M204.311,247.703l-27.312-27.312c-6.568-6.568-6.568-17.217,0-23.785l27.312-27.312  c6.568-6.568,17.217-6.568,23.785,0l27.312,27.312c6.568,6.568,6.568,17.217,0,23.785l-27.312,27.312  C221.528,254.271,210.879,254.271,204.311,247.703z" data-original="#FFFFFF" class=""/><g style="opacity:0.1;">
	<path d="M208.907,206.304c-1.919,0-3.839-0.732-5.303-2.197c-2.929-2.929-2.929-7.678,0-10.606l8.175-8.175   c2.929-2.929,7.678-2.928,10.606,0.001c2.929,2.929,2.929,7.678,0,10.606l-8.175,8.175   C212.746,205.571,210.827,206.304,208.907,206.304z" data-original="#000000" class=""/>
	<path d="M216.593,233.691c-1.919,0-3.839-0.732-5.303-2.196c-2.929-2.93-2.929-7.678,0-10.607l8.176-8.176   c2.929-2.928,7.678-2.928,10.606,0c2.929,2.93,2.929,7.678,0,10.607l-8.176,8.176C220.432,232.959,218.513,233.691,216.593,233.691   z" data-original="#000000" class=""/>
</g><path style="opacity:0.1;enable-background:new    ;" d="M177.999,227c20.865-52.952-1.015-119.087-21.558-154.089h-40.164  c-7.403,0-11.68,8.39-7.341,14.388c39.114,54.059-12.555,104.487-12.555,164.879c0,73.865,59.879,122.673,133.744,122.673  c22.306,0,43.332-4.458,61.824-12.706C178.879,370.629,152.202,292.467,177.999,227z" data-original="#000000" class=""/><g style="opacity:0.4;">
	<circle style="fill:#FFFFFF;" cx="315.891" cy="297.61" r="7.173" data-original="#FFFFFF" class=""/>
	<circle style="fill:#FFFFFF;" cx="339.5" cy="246.97" r="7.173" data-original="#FFFFFF" class=""/>
	<circle style="fill:#FFFFFF;" cx="135" cy="248.67" r="7.173" data-original="#FFFFFF" class=""/>
</g></g> </svg>
