<?xml version="1.0"?>
<svg xmlns="http://www.w3.org/2000/svg" xmlns:xlink="http://www.w3.org/1999/xlink" version="1.1" id="Capa_1" x="0px" y="0px" viewBox="0 0 468.293 468.293" style="enable-background:new 0 0 468.293 468.293;" xml:space="preserve" width="512px" height="512px" class=""><g><path style="fill:#1CC5D2" d="M347.521,373.975c-45.832,25.774-97.239,40.725-149.754,42.753  C76.269,421.482,19.065,357.793,4.781,338.844c-3.584-4.773-5.455-10.703-4.559-16.606c0.023-0.17,0.046-0.34,0.141-0.536  c0.326-1.652,0.773-3.185,1.391-4.695c4.389-11.563,16.922-18.538,29.626-16.972c67.869,8.687,321.609,26.966,370.963-176.115  l0.438,0.094l28.717,4.267l18.027,2.66c0.74,1.449,1.506,2.972,2.416,4.444c0.197,0.337,0.321,0.701,0.446,1.064  C504.903,258.849,416.293,335.387,347.521,373.975z" data-original="#F6C358" class="" data-old_color="#F6C358"/><path style="fill:#1BD1D6" d="M431.498,128.28c16.528,96.455-58.468,158.997-118.403,192.608  c-45.832,25.774-97.239,40.725-149.754,42.753c-79.244,3.082-131.15-22.922-161.587-46.634  c4.389-11.563,16.922-18.538,29.626-16.972c67.869,8.687,321.609,26.966,370.963-176.115l0.438,0.094L431.498,128.28z" data-original="#FCD462" class="active-path" data-old_color="#FCD462"/><path style="fill:#44C4A1;" d="M449.545,130.927l-47.182-7.021c2.709-10.353,7.407-33.204,1.164-63.303  c-1.105-5.327,3.42-10.11,8.779-9.173c4.968,0.868,10.749,1.516,15.729,1.111c4.66-0.379,8.643,3.357,8.342,8.023  C435.389,75.888,435.991,104.14,449.545,130.927z" data-original="#44C4A1" class=""/></g> </svg>
