<svg height="512" viewBox="0 0 59 48" width="512" xmlns="http://www.w3.org/2000/svg"><g id="Page-1" fill="none" fill-rule="evenodd"><g id="006---Watermelon" fill-rule="nonzero"><path id="Shape" d="m52.72 36.83c-9.6981535 12.2706023-27.3796621 14.6400959-39.9663701 5.355881-12.586708-9.2842148-15.54361049-26.8770251-6.6836299-39.765881.15636885-.22113515.39574632-.36938761.66338892-.41085336.2676426-.04146576.54065838.02740183.75661108.19085336l1.59 1.18.81.59c-8.19590544 11.1119692-5.83196883 26.7640941 5.2800002 34.9599997 11.1119691 8.1959056 26.764094 5.8319692 34.9599998-5.2799997l.8.59 1.59 1.17c.218035.1594311.3623026.4002835.399974.6677501.0376714.2674667-.0344577.5387975-.199974.7522499z" fill="#4fba6f"/><path id="Shape" d="m50.13 33.65c-8.1959058 11.1119689-23.8480307 13.4759053-34.9599998 5.2799997-11.11196903-8.1959056-13.47590564-23.8480305-5.2800002-34.9599997l.8.59 10.33 7.62 1.63 1.2 22.9 16.89.01.01 2.09 1.54 1.68 1.24z" fill="#ff5364"/><path id="Shape" d="m45.56 30.28c-2.1533161.4818308-4.353437.7233075-6.56.72-7.8491562.0003024-15.396088-3.0263504-21.07-8.45-.5805292-.5583463-.9151247-1.324678-.93-2.13-.0083924-.8080119.3003715-1.5871023.86-2.17l4.79-4.87 22.9 16.89z" fill="#df4d60"/><g fill="#802d40"><path id="Shape" d="m21.075 34.276c-.6437233.9814686-1.9585475 1.2600595-2.945.624-.9010085-.7543806-1.0234406-2.0948784-.274-3 .738-1 2.947-2.487 3.835-1.831s.122 3.207-.616 4.207z"/><path id="Shape" d="m30.007 36.667c.004566.7763638-.4375241 1.4862229-1.1363051 1.8245522-.698781.3383294-1.5298107.2448777-2.1359973-.2401989-.6061866-.4850767-.8795777-1.2753936-.7026976-2.0313533.139-1.235 1.309-3.627 2.406-3.5s1.708 2.712 1.569 3.947z"/><path id="Shape" d="m38.937 34.271c.3941063.6701194.3673359 1.5072293-.0687816 2.1507985-.4361176.6435691-1.2036982.9786657-1.9721558.8609684s-1.4005573-.6671696-1.6240626-1.4117669c-.5-1.139-.68-3.8.332-4.237s2.836 1.498 3.333 2.637z"/><path id="Shape" d="m12.586 14.834c-1.1577509-.1952213-2.2560256.5805832-2.459 1.737-.0579193 1.1723877.8410487 2.1718364 2.013 2.238 1.234.139 3.826-.471 3.949-1.568s-2.268-2.268-3.503-2.407z"/><path id="Shape" d="m12.935 24.074c-.7433008.2245881-1.2912861.8564779-1.4084294 1.6240803-.1171433.7676023.2174232 1.5341777.8599012 1.9702486.6424781.436071 1.4784177.4639564 2.1485282.0716711 1.139-.5 3.079-2.321 2.637-3.334s-3.099-.829-4.237-.332z"/></g><path id="Shape" d="m58.69 21.11c-11.0187702 10.5242621-28.3665762 10.5198568-39.38-.01-.4056015-.3950247-.414552-1.0439387-.02-1.45l1.4-1.43.7-.71c4.6115857 4.7761769 10.9658292 7.4736836 17.605 7.4736836s12.9934143-2.6975067 17.605-7.4736836l.7.71 1.4 1.43c.1931224.1944943.3006695.4579991.2987922.7320808s-.1130237.5360885-.3087922.7279192z" fill="#4fba6f"/><path id="Shape" d="m56.6 17.51c-4.6115857 4.7761769-10.9658292 7.4736836-17.605 7.4736836s-12.9934143-2.6975067-17.605-7.4736836l.7-.71 16.21-16.5c.1843911-.191781.4389549-.30016595.705-.30016595s.5206089.10838495.705.30016595l16.19 16.5z" fill="#ff5364"/><path id="Shape" d="m32.5 16.449c-.369077 1.1240816.2280551 2.3370061 1.344 2.73.5550776.1107646 1.1314141-.0040679 1.6016493-.3191217.4702351-.3150538.7956561-.8043916.9043507-1.3598783.32-1.217.1-3.91-.958-4.2s-2.571 1.931-2.892 3.149z" fill="#802d40"/><path id="Shape" d="m41.653 17.5c.108289.5545429.4326708 1.0432545.9016359 1.358399s1.044009.430847 1.5983641.321601c1.1159618-.3930161 1.7134069-1.6056741 1.345-2.73-.321-1.218-1.829-3.44-2.891-3.15s-1.274 2.982-.954 4.2z" fill="#802d40"/><path id="Shape" d="m50.93 34.24c-8.5729716 11.4005761-24.7304546 13.7652988-36.210942 5.2996395-11.48048742-8.4656593-13.99666011-24.6002509-5.639058-36.1596395l.81.59.8.59c-7.79880807 10.6714791-5.50453688 25.6395433 5.1325379 33.4852118 10.6370747 7.8456685 25.615085 5.6172528 33.5074621-4.9852118l.8.59z" fill="#f3d55b"/><path id="Shape" d="m57.3 18.22c-4.7906139 4.9560519-11.3870748 7.7563001-18.28 7.76h-.02c-6.9009843-.0071485-13.5054637-2.8062069-18.31-7.76l.7-.71.7-.71.01.01c4.4318321 4.5772118 10.5288175 7.163921 16.9 7.17h.02c6.3621927-.007207 12.4494499-2.5943815 16.87-7.17l.01-.01.7.71z" fill="#f3d55b"/></g></g></svg>