<?xml version="1.0" encoding="iso-8859-1"?>
<!-- Generator: Adobe Illustrator 19.0.0, SVG Export Plug-In . SVG Version: 6.00 Build 0)  -->
<svg version="1.1" id="Capa_1" xmlns="http://www.w3.org/2000/svg" xmlns:xlink="http://www.w3.org/1999/xlink" x="0px" y="0px"
	 viewBox="0 0 511.996 511.996" style="enable-background:new 0 0 511.996 511.996;" xml:space="preserve">
<path style="fill:#307E45;" d="M277.7,150.224L277.7,150.224c-4.79,0-8.677-3.887-8.677-8.677v-37.424
	c-0.052-47.897-38.873-86.717-86.769-86.769V0c57.476,0.061,104.063,46.647,104.123,104.123v37.424
	C286.377,146.337,282.499,150.224,277.7,150.224z"/>
<path style="fill:#399D5A;" d="M399.177,8.677c0.009,32.217-12.79,63.125-35.575,85.902c-14.308,14.352-32.009,24.851-51.454,30.543
	c-9.779,2.933-19.905,4.599-30.109,4.946c-1.475,0.087-2.863,0.087-4.338,0.087C277.7,63.064,332.087,8.677,399.177,8.677z"/>
<rect x="257.937" y="73.734" transform="matrix(-0.7071 0.7071 -0.7071 -0.7071 613.809 -89.4267)" style="fill:#307E45;" width="134.977" height="17.354"/>
<path style="fill:#E66644;" d="M129.325,469.336c-5.111,0-10.169-0.182-15.228-0.39c26.239,18.508,57.528,28.504,89.633,28.634
	c1.536,0.035,3.072-0.026,4.599-0.174v0.174h17.354c16.087,16.156,41.198,19.072,60.565,7.028
	c6.577-4.347,14.239-6.785,22.126-7.028h0.087c93.234-0.13,168.81-83.429,168.81-186.25c-0.026-21.718-3.54-43.289-10.412-63.897
	C408.687,382.106,276.034,469.318,129.325,469.336z"/>
<path style="fill:#FF714C;" d="M466.857,247.432c-23.246-70.136-83.455-120.609-154.719-122.345
	c-9.779,2.933-19.905,4.599-30.109,4.946l0.434,16.399c-23.888-14.022-51.081-21.423-78.787-21.432
	c-93.268,0.035-168.931,83.42-168.931,186.329c-0.902,62.344,28.712,121.191,79.307,157.617c5.059,0.208,10.117,0.39,15.228,0.39
	C276,469.336,408.679,382.124,466.857,247.432z"/>
<g>
</g>
<g>
</g>
<g>
</g>
<g>
</g>
<g>
</g>
<g>
</g>
<g>
</g>
<g>
</g>
<g>
</g>
<g>
</g>
<g>
</g>
<g>
</g>
<g>
</g>
<g>
</g>
<g>
</g>
</svg>
